<svg width="16" height="16" viewBox="0 0 16 16" fill="none" xmlns="http://www.w3.org/2000/svg">
<path d="M13.332 2.66663H2.66536C2.29111 2.66663 1.95158 2.8229 1.70881 3.07342C1.77681 3.10114 1.84279 3.13684 1.90549 3.18073L7.9987 7.44597L14.0919 3.18073C14.1546 3.13684 14.2206 3.10114 14.2886 3.07342C14.0458 2.8229 13.7063 2.66663 13.332 2.66663Z" fill="#898F9A"/>
<path d="M14.6654 5.22061L8.57216 9.48586C8.22784 9.72688 7.76956 9.72688 7.42524 9.48586L1.33203 5.22061V12C1.33203 12.7333 1.93203 13.3333 2.66536 13.3333H13.332C14.0654 13.3333 14.6654 12.7333 14.6654 12V5.22061Z" fill="#898F9A"/>
</svg>