<svg width="16" height="16" fill="none" xmlns="http://www.w3.org/2000/svg"><path d="M9.061 10.376c.155-.109.36-.31.36-.81 0-.354-.24-.567-.754-.787v1.773c.15-.046.288-.1.394-.176z" fill="#C0C5CD"/><path d="M8 0C3.589 0 0 3.589 0 8s3.589 8 8 8 8-3.589 8-8-3.589-8-8-8zm2.755 9.567c0 1.033-.504 1.604-.928 1.901-.331.233-.73.371-1.16.451v1.414H7.333v-1.358a8.646 8.646 0 01-2.226-.484l-.627-.226.453-1.254.627.226a7.242 7.242 0 001.773.404V8.302C6.274 7.922 5.1 7.329 5.1 5.821c0-.752.348-1.373.982-1.748.362-.213.796-.328 1.252-.382V2.667h1.334V3.7c.784.091 1.503.306 1.904.528l.584.32-.642 1.169-.584-.321c-.288-.159-.76-.288-1.262-.358v2.309c1.018.36 2.088.881 2.088 2.22z" fill="#C0C5CD"/><path d="M6.76 5.222c-.23.136-.328.315-.328.599 0 .504.286.78.901 1.047v-1.83c-.218.037-.42.093-.572.184z" fill="#C0C5CD"/></svg>