<svg width="16" height="16" viewBox="0 0 16 16" fill="none" xmlns="http://www.w3.org/2000/svg">
<path d="M10.3468 9.64733L8.79079 11.1807L4.81812 7.20799L6.35145 5.65199C6.44418 5.55766 6.50675 5.43789 6.53121 5.30789C6.55566 5.1779 6.5409 5.04357 6.48879 4.92199L4.89212 1.19533C4.829 1.04837 4.71516 0.929005 4.57136 0.859001C4.42756 0.788998 4.26339 0.773024 4.10879 0.813993L1.17545 1.58866C1.0289 1.62658 0.899611 1.71325 0.808859 1.83441C0.718107 1.95558 0.671294 2.10402 0.67612 2.25533C0.862679 5.66458 2.28021 8.89028 4.66545 11.3333C7.10928 13.7189 10.336 15.1362 13.7461 15.322C13.8974 15.3268 14.0459 15.28 14.167 15.1893C14.2882 15.0985 14.3749 14.9692 14.4128 14.8227L15.1875 11.8893C15.2284 11.7347 15.2124 11.5706 15.1424 11.4268C15.0724 11.283 14.9531 11.1691 14.8061 11.106L11.0795 9.50933C10.9575 9.45672 10.8226 9.44175 10.692 9.46633C10.5615 9.49092 10.4413 9.55395 10.3468 9.64733Z" fill="#898F9A"/>
</svg>