<svg width="70" height="70" fill="none" xmlns="http://www.w3.org/2000/svg"><path d="M0 33.6c0-11.761 0-17.642 2.289-22.134a21 21 0 019.177-9.177C15.958 0 21.84 0 33.6 0h2.8c11.761 0 17.642 0 22.134 2.289a21 21 0 019.177 9.177C70 15.958 70 21.84 70 33.6v2.8c0 11.761 0 17.642-2.289 22.134a21 21 0 01-9.177 9.177C54.042 70 48.16 70 36.4 70h-2.8c-11.761 0-17.642 0-22.134-2.289a21 21 0 01-9.177-9.177C0 54.042 0 48.16 0 36.4v-2.8z" fill="#F5A337"/><path d="M69.983 27.34C70 29.226 70 31.3 70 33.6v2.8c0 11.761 0 17.642-2.289 22.134a21 21 0 01-9.177 9.177C54.042 70 48.16 70 36.4 70h-2.8c-7.933 0-13.19 0-17.15-.702C21.313 45.335 42.5 27.3 67.897 27.3c.699 0 1.394.014 2.085.04z" fill="#F7B55F"/><path d="M32.856 51.1a1.4 1.4 0 001.4 1.4h1.183a1.4 1.4 0 001.4-1.4v-2.284c0-.344.25-.635.587-.707 4.313-.93 6.675-4.168 6.675-7.659 0-3.567-2.226-6.54-7.145-7.65l-3.553-.832c-1.835-.397-2.694-1.427-2.694-2.656 0-1.625 1.366-3.092 3.865-3.092 2.193 0 3.36 1.08 3.954 2.205.39.74 1.201 1.278 2.005 1.046l2.05-.593c.703-.202 1.142-.916.891-1.603-.806-2.207-2.632-4.465-6.065-5.293a.734.734 0 01-.57-.704V18.9a1.4 1.4 0 00-1.4-1.4h-1.183a1.4 1.4 0 00-1.4 1.4v2.245c0 .344-.25.634-.586.708-3.887.857-6.793 3.852-6.793 7.855 0 3.806 2.616 6.5 6.832 7.452l3.593.793c1.952.436 2.928 1.467 2.928 2.814 0 1.744-1.484 2.973-4.022 2.973-2.811 0-4.427-1.408-5.108-3.218-.302-.8-1.104-1.395-1.934-1.19l-2.08.51c-.68.167-1.142.813-.97 1.49.743 2.93 3.13 5.988 7.538 6.828a.73.73 0 01.602.708V51.1z" fill="#fff"/></svg>