<svg width="70" height="70" fill="none" xmlns="http://www.w3.org/2000/svg"><path d="M0 33.6c0-11.761 0-17.642 2.289-22.134a21 21 0 019.177-9.177C15.958 0 21.84 0 33.6 0h2.8c11.761 0 17.642 0 22.134 2.289a21 21 0 019.177 9.177C70 15.958 70 21.84 70 33.6v2.8c0 11.761 0 17.642-2.289 22.134a21 21 0 01-9.177 9.177C54.042 70 48.16 70 36.4 70h-2.8c-11.761 0-17.642 0-22.134-2.289a21 21 0 01-9.177-9.177C0 54.042 0 48.16 0 36.4v-2.8z" fill="#37C994"/><path d="M69.983 27.34C70 29.226 70 31.3 70 33.6v2.8c0 11.761 0 17.642-2.289 22.134a21 21 0 01-9.177 9.177C54.042 70 48.16 70 36.4 70h-2.8c-7.933 0-13.19 0-17.15-.702C21.313 45.335 42.5 27.3 67.897 27.3c.699 0 1.394.014 2.085.04z" fill="#5FD4AA"/><path fill-rule="evenodd" clip-rule="evenodd" d="M43.596 19.6a1.75 1.75 0 10-3.5 0v1.33h-10.19V19.6a1.75 1.75 0 10-3.5 0v1.33h-3.382c-2.679 0-5.172 1.994-5.172 4.83v21.56c0 2.836 2.493 4.83 5.172 4.83h23.955c2.679 0 5.173-1.994 5.173-4.83V25.76c0-2.836-2.494-4.83-5.173-4.83h-3.383V19.6zm5.056 10.57v-4.41c0-.566-.571-1.33-1.673-1.33h-3.383v1.33a1.75 1.75 0 11-3.5 0v-1.33h-10.19v1.33a1.75 1.75 0 11-3.5 0v-1.33h-3.382c-1.102 0-1.672.764-1.672 1.33v4.41h27.3zm-27.3 3.5h27.3v13.65c0 .566-.571 1.33-1.673 1.33H23.024c-1.102 0-1.672-.764-1.672-1.33V33.67z" fill="#fff"/></svg>